<?xml version="1.0" encoding="utf-8"?>
<!-- Generator: Adobe Illustrator 16.0.0, SVG Export Plug-In . SVG Version: 6.00 Build 0)  -->
<!DOCTYPE svg PUBLIC "-//W3C//DTD SVG 1.1//EN" "http://www.w3.org/Graphics/SVG/1.1/DTD/svg11.dtd">
<svg version="1.1" xmlns="http://www.w3.org/2000/svg" xmlns:xlink="http://www.w3.org/1999/xlink" x="0px" y="0px" width="1024px"
	 height="1024px" viewBox="0 0 1024 1024" enable-background="new 0 0 1024 1024" xml:space="preserve">
<g id="BG" display="none">
	<rect display="inline" fill="#FF00FF" width="1024" height="1024"/>
</g>
<g id="Guides_820x820" display="none">
</g>
<g id="icon-raw.svg" display="none">
	<g display="inline">
		<path d="M721.673,920.968c-184,0-367.377,0.003-550.753-0.002c-34.567-0.002-60.785-20.549-67.801-53.485
			c-1.826-8.573-1.001-17.423-0.418-26.1c1.334-19.835,3.065-39.646,4.759-59.455c1.887-22.079,3.957-44.143,5.861-66.22
			c1.424-16.509,2.678-33.032,4.074-49.544c1.553-18.366,3.217-36.724,4.767-55.09c1.36-16.105,2.586-32.223,3.951-48.329
			c1.539-18.162,3.198-36.313,4.746-54.473c0.968-11.353,1.79-22.719,2.744-34.073c1.526-18.163,3.163-36.317,4.648-54.484
			c1.03-12.607,2.454-25.215,2.705-37.843c0.609-30.58,25.009-59.283,55.172-64.424c5.16-0.88,10.276-1.18,15.468-1.178
			c60.709,0.02,121.419,0.025,182.129-0.014c2.833-0.002,5.778,0.613,8.915-0.928c-1.541-5.907-4.822-10.934-7.866-15.977
			c-4.624-7.66-4.879-15.116-0.56-22.942c14.458-26.197,28.83-52.442,43.226-78.674c0.974-1.774,1.875-3.588,3.005-5.757
			c-2.459-0.793-4.368-1.5-6.327-2.024c-9.731-2.601-14.76-8.885-14.794-18.873c-0.059-16.632-0.076-33.266,0.014-49.899
			c0.061-11.101,7.189-18.25,18.407-18.264c49.689-0.061,99.38-0.056,149.071,0.024c10.63,0.017,17.934,7.475,17.988,18.123
			c0.083,16.424,0.039,32.85,0.019,49.275c-0.014,11.085-4.834,17.04-15.867,19.781c-1.593,0.395-3.137,0.993-4.514,1.437
			c-1.083,2.12,0.236,3.439,1.001,4.825c14.063,25.47,27.889,51.074,42.36,76.309c6.024,10.506,6.539,20.095-0.177,30.258
			c-2.456,3.718-5.051,7.525-6.271,12.005c2.837,2.155,5.854,1.282,8.64,1.284c60.71,0.06,121.42,0.039,182.129,0.049
			c35.003,0.006,62.244,21.416,70.258,55.462c1.271,5.406,1.938,10.979,1.95,16.63c0.05,21.171,3.024,42.137,4.649,63.2
			c0.957,12.396,1.795,24.801,2.822,37.191c1.505,18.154,3.191,36.293,4.688,54.448c1.413,17.14,2.621,34.296,4.034,51.436
			c1.462,17.743,3.086,35.474,4.596,53.214c1,11.763,1.896,23.533,2.885,35.296c1.527,18.153,3.117,36.3,4.634,54.453
			c0.984,11.766,1.86,23.54,2.833,35.306c1.536,18.576,3.354,37.132,4.602,55.727c1.146,17.076,4.688,34.359-2.242,51.071
			c-9.574,23.086-27.133,36.004-51.547,40.121c-12.196,2.057-24.475,1.014-36.713,1.068
			C793.814,921.066,758.056,920.967,721.673,920.968 M535.487,720.021c23.395-20.798,51.706-22.47,79.081-4.646
			c19.148,12.468,33.978,29.189,46.743,47.87c26.058,38.13,43.709,80.073,55.764,124.468c1.479,5.443,3.452,7.687,9.563,7.644
			c43.244-0.3,86.49-0.108,129.735-0.168c24.698-0.034,44.065-22.904,40.615-47.297c-1.624-11.481-2.495-23.073-3.519-34.633
			c-1.828-20.646-3.506-41.309-5.261-61.962c-2.003-23.551-4.113-47.093-5.951-70.655c-0.326-4.189-1.596-6.054-5.998-6.99
			c-13.865-2.951-26.218-9.162-36.464-19.159c-23.654-23.081-34.479-51.464-33.583-84.174c0.917-33.488,22.459-66.384,56.512-70.774
			c2.426-0.312,4.142-1.231,3.868-4.447c-1.242-14.675-2.168-29.376-3.366-44.054c-1.757-21.494-4.267-42.93-4.762-64.519
			c-0.567-24.756-20.64-44.49-44.697-43.902c-35.323,0.863-70.683,0.199-106.027,0.213c-1.804,0-3.769-0.613-5.479,1.116
			c-0.236,3.985,0.006,8.061,0.46,12.207c2.14,19.587,1.21,38.973-10.378,55.702c-6.624,9.563-7.397,18.634-4.316,29.291
			c5.77,19.952,5.871,39.686-4.323,58.578c-13.324,24.691-35.134,38.083-61.132,45.734c-28.847,8.488-57.995,4.563-87.139,1.885
			c-20.631-1.896-41.153-1.295-60.667,6.806c-23.064,9.574-40.272,26.925-37.324,62.674c1.316,15.94,6.363,31.18,8.094,47.091
			c3.249,29.868-3.863,56.594-24.811,77.99c-31.597,32.272-70.39,39.777-112.339,25.461c-34.711-11.847-57.135-36.241-62.648-73.761
			c-3.117-21.209-14.877-34.308-35.646-38.851c-10.029-2.194-20.207-1.027-30.245,1.269c-11.796,2.696-23.839,1.766-36.353,1.482
			c-1.374,14.788-2.789,29.18-4.027,43.588c-1.083,12.598-1.917,25.217-2.954,37.819c-1.479,17.968-3.037,35.93-4.569,53.894
			c-1.532,17.973-2.392,36.036-4.775,53.896c-3.405,25.514,15.574,48.46,41.319,48.478c73.392,0.052,146.784,0.022,220.176,0.014
			c2.993,0,6.056,0.246,9.027-1.337c-1.345-3.046-2.56-5.679-3.68-8.351c-15.637-37.337,4.349-76.756,43.406-85.763
			c10.939-2.523,21.919-0.298,32.873-0.641c14.062-0.44,25.919-5.298,34.155-17.288c3.838-5.587,5.608-11.99,7.325-18.42
			C516.068,747.315,522.557,732.413,535.487,720.021 M423.863,349.284c-1.854-4.098-4.496-6.381-9.525-6.372
			c-69.02,0.121-138.04-0.088-207.059,0.133c-20.226,0.064-37.945,15.83-40.139,35.86c-2.347,21.427-3.518,42.982-5.237,64.479
			c-1.322,16.531-2.611,33.066-4.073,49.585c-1.88,21.257-3.988,42.496-5.872,63.752c-2.049,23.128-3.865,46.277-6.005,69.396
			c-0.369,3.989,0.735,5.333,4.682,6.201c7.398,1.625,14.5,0.005,21.593-1.082c13.754-2.108,27.33-4.143,41.383-1.882
			c26.583,4.279,50.044,25.918,55.699,52.283c2.465,11.495,3.356,23.413,10.482,33.543c13.371,19.01,31.653,29.615,54.559,32.174
			c27.032,3.021,50.847-4.17,69.289-24.7c16.54-18.414,19.527-40.618,15.033-64.213c-3.41-17.908-7.998-35.593-6.894-54.134
			c1.604-26.972,12.438-48.936,34.717-64.47c26.344-18.366,56.439-20.477,87.171-18.392c17.163,1.165,34.211,3.715,51.502,3.349
			c18.905-0.401,36.553-4.841,52.674-14.805c11.559-7.145,21-16.229,26.008-29.27c4.876-12.701,2.002-25.04-2.07-37.104
			c-4.866-14.418-3.382-27.649,4.938-40.401c4.082-6.254,7.29-13,8.643-20.537c1.971-10.984,0.889-21.867,0.057-32.859
			c-0.429-5.652-2.584-6.899-7.633-6.847c-18.501,0.194-37.007,0.277-55.504-0.033c-5.768-0.098-8.969,2.058-11.803,6.963
			c-24.521,42.458-49.231,84.81-74,127.125c-8.106,13.849-21.7,13.555-29.659-0.358
			C472.675,434.463,448.485,392.281,423.863,349.284 M605.017,895.209c18.085-0.001,36.17,0.002,54.254-0.006
			c8.107-0.002,16.215-0.089,24.319-0.012c4.57,0.044,6.574-1.862,5.635-6.497c-0.328-1.626-0.354-3.332-0.824-4.909
			c-12.579-42.075-29.556-82.071-56.467-117.206c-10.039-13.108-21.604-24.757-36.444-32.582c-17.264-9.105-34.485-5.347-46.8,9.688
			c-7.103,8.671-9.809,19.013-12.696,29.442c-7.373,26.629-23.527,44.461-51.414,49.998c-11.109,2.206-22.36,0.49-33.549,0.62
			c-14.402,0.167-25.777,6.125-32.477,19.253c-6.806,13.332-5.982,26.578,2.523,38.865c6.041,8.726,13.839,13.689,25.548,13.574
			C499.001,894.921,551.388,895.211,605.017,895.209 M599.556,275.919c-14.229-25.594-28.602-51.11-42.583-76.839
			c-3.29-6.054-7.231-8.274-14.248-8.106c-21.603,0.518-43.227,0.301-64.839,0.086c-4.517-0.045-7.144,1.387-9.345,5.379
			c-15.344,27.832-30.697,55.664-46.568,83.197c-3.422,5.938-2.896,10.128,0.373,15.713c17.835,30.477,35.289,61.177,52.879,91.796
			c7.618,13.259,15.247,26.511,23.068,40.11c0.496-0.943,0.814-1.266,0.814-1.59c0.033-29.719-0.026-59.44,0.126-89.16
			c0.021-4.084-1.979-6.071-5.23-7.525c-12.652-5.656-22.831-21.949-19.812-40.005c2.51-15.009,16.97-29.58,31.676-31.297
			c19.979-2.333,34.719,5.415,41.167,21.636c7.011,17.643,0.127,38.247-16.578,48.924c-3.373,2.156-5.595,4.178-5.562,8.713
			c0.198,27.849,0.079,55.7,0.132,83.549c0.002,1.459-0.811,3.381,1.639,4.424c0.591-0.759,1.304-1.481,1.793-2.333
			c23.91-41.597,47.53-83.364,71.929-124.671C605.127,289.897,605.729,283.699,599.556,275.919 M536.396,165.321
			c11.849-0.005,23.701-0.204,35.542,0.073c5.315,0.124,7.735-1.979,7.837-7.135c0.127-6.437,0.413-12.872,0.39-19.308
			c-0.031-8.348-0.634-8.881-8.808-8.881c-38.246-0.005-76.494,0.002-114.74,0.027c-2.49,0.001-4.983,0.314-7.47,0.253
			c-3.944-0.098-5.505,1.561-5.348,5.606c0.258,6.642,0.062,13.301,0.074,19.953c0.017,8.989,0.384,9.39,9.584,9.4
			C480.689,165.334,507.919,165.32,536.396,165.321 M873.919,586.427c-1.701-20.391-2.849-40.838-5.588-61.655
			c-13.275,1.512-21.988,8.733-28.234,19.021c-11.352,18.701-9.798,38.511-3.498,58.283c5.822,18.266,16.459,32.98,33.831,42.077
			c2.253,1.18,4.554,3.001,8.188,1.383C877.137,626.304,875.646,606.933,873.919,586.427 M501.168,291.569
			c-1.978,6.964,0.982,12.629,7.553,14.458c5.908,1.644,12.823-2.912,14.488-9.543c1.419-5.651-2.505-11.453-8.938-12.575
			C508.44,282.893,504.444,285.965,501.168,291.569z"/>
		<path d="M748.023,748.248c-8.17-10.803-16.012-21.112-18.511-34.608c-3.56-19.231,8.633-41.171,27.756-48.617
			c18.033-7.021,37.583,0.104,48.272,17.701c2.153,3.546,3.993,7.286,5.891,10.982c3.444,6.709,7.758,12.517,13.679,17.488
			c14.573,12.235,16.963,28.603,12.707,45.938c-3.757,15.306-11.472,28.554-25.764,36.729
			c-18.768,10.737-39.642,4.433-49.908-14.665C756.827,769.304,754.735,757.978,748.023,748.248 M808.824,731.828
			c-9.171-6.966-15.093-16.387-20.189-26.477c-1.865-3.692-3.825-7.401-6.248-10.736c-4.044-5.57-9.938-7.259-15.963-5.125
			c-7.731,2.739-13.128,12.594-11.359,20.636c1.085,4.939,2.928,9.594,6.145,13.463c10.204,12.275,17.692,25.938,22.707,41.123
			c2.495,7.558,7.732,9.866,13.919,7.335C811.245,766.562,819.414,742.768,808.824,731.828z"/>
		<path d="M759.862,549.437c9.946,16.711,9.974,33.066-0.07,49.173c-9.229,14.797-18.693,29.449-28.235,44.047
			c-7.147,10.934-19.231,11.05-26.459,0.236c-9.46-14.154-18.659-28.482-27.992-42.723c-19.688-30.036-1.327-66.182,31.031-72.382
			C729.27,523.74,747.03,530.878,759.862,549.437 M695.633,571.97c-0.57,4.008-0.275,8.086,1.529,11.588
			c4.568,8.87,10.765,16.729,16.75,24.658c2.536,3.357,7.738,2.689,10.096-0.789c4.997-7.371,10.103-14.691,14.653-22.337
			c3.809-6.4,4.376-13.358,0.773-20.197c-4.616-8.767-14.529-14.212-23.586-13.11C705.836,553.001,698.752,559.829,695.633,571.97z"
			/>
		<path d="M184.15,763.816c13.752-19.53,33.555-27.277,54.97-21.794c19.796,5.068,34.881,22.766,37.107,44.515
			c0.982,9.594-2.57,18.419-7.693,26.437c-9.281,14.521-18.665,28.976-28.172,43.348c-8.309,12.559-19.958,12.358-28.244-0.311
			c-8.866-13.556-17.807-27.063-26.571-40.686C174.821,798.656,173.984,781.58,184.15,763.816 M209.668,806.958
			c5.56,7.604,9.836,16.173,17.122,23.692c7.071-10.489,13.874-20.146,20.208-30.102c5.767-9.063,4.521-18.849-2.787-26.814
			c-7.265-7.919-18.708-10.144-27.913-5.715C204.91,773.499,195.295,790.104,209.668,806.958z"/>
		<path d="M320.397,549.171c-5.245,8.27-10.17,16.208-15.254,24.042c-7.409,11.419-19.208,11.762-26.55,0.334
			c-12.902-20.083-25.938-40.12-37.844-60.794c-16.664-28.936-3.887-65.193,27.364-80.096c29.388-14.014,65.695,0.441,78.069,31.136
			c6.882,17.073,5.842,33.776-3.431,49.625C335.732,525.415,328.039,537.017,320.397,549.171 M316.108,463.414
			c-12.823-12.232-28.919-13.808-42.458-4.161c-13.373,9.531-18.88,26.999-11.106,40.768c8.659,15.336,18.956,29.747,28.573,44.54
			c0.158,0.244,0.739,0.212,1.439,0.389c0.778-1.049,1.684-2.147,2.458-3.331c8.417-12.857,16.188-26.119,24.796-38.87
			C328.025,490.582,326.438,476.058,316.108,463.414z"/>
		<path d="M363.374,549.479c6.042-12.485,15.79-21.273,25.655-29.697c5.814-4.965,14.415-2.956,19.472,3.012
			c4.94,5.83,4.756,13.107-0.868,19.051c-5.837,6.169-11.937,12.074-17.363,18.644c-5.566,6.736-11.949,8.917-17.918,6.683
			C365.753,564.7,363.041,559.562,363.374,549.479z"/>
		<path d="M364.014,697.153c0.063,4.561-0.15,8.497-1.676,12.223c-2.673,6.521-9.867,10.583-15.984,9.085
			c-7.202-1.765-11.66-8.299-11.063-15.855c0.669-8.465,1.278-16.939,1.66-25.422c0.421-9.401,6.298-15.649,14.572-15.118
			c7.961,0.511,14.219,7.836,13.45,16.495C364.439,684.561,363.834,690.531,364.014,697.153z"/>
		<path d="M444.686,483.736c5.146-1.824,9.751-3.868,14.568-5.019c8.988-2.145,16.53,2.785,18.873,11.8
			c1.802,6.935-2.522,13.434-10.969,16.257c-6.706,2.242-13.234,4.883-19.655,7.848c-7.601,3.509-13.723,2.021-18.124-4.104
			c-4.264-5.935-3.465-13.692,1.917-19.374C434.868,487.372,439.643,485.822,444.686,483.736z"/>
		<path d="M367.189,626.604c-2.378,9.382-9.234,14.844-16.331,13.406c-8.308-1.683-12.57-9.067-10.994-18.632
			c1.478-8.964,1.868-18.136,4.763-26.826c3.183-9.546,13.678-12.78,21.619-6.746c5.3,4.028,6.187,9.594,4.771,15.658
			C369.273,610.933,367.935,618.45,367.189,626.604z"/>
	</g>
</g>
<g id="icon-raw.svg_colored">
	<g>
		<g id="XMLID_1_">
			<g>
				<path fill="#FBBC04" d="M739.43,564.89c3.61,6.841,3.04,13.801-0.77,20.2c-4.55,7.65-9.66,14.97-14.65,22.34
					c-2.359,3.48-7.56,4.141-10.1,0.79c-5.98-7.93-12.18-15.79-16.75-24.66c-1.8-3.5-2.101-7.579-1.53-11.59
					c3.12-12.14,10.21-18.97,20.22-20.189C724.91,550.68,734.82,556.13,739.43,564.89z"/>
				<path fill="#FBBC04" d="M244.21,773.73c7.31,7.97,8.55,17.76,2.79,26.819c-6.34,9.95-13.14,19.61-20.21,30.101
					c-7.29-7.521-11.56-16.091-17.12-23.69c-14.37-16.86-4.76-33.46,6.63-38.94C225.5,763.59,236.95,765.82,244.21,773.73z"/>
				<path fill="#EA4335" d="M316.11,463.41c10.33,12.65,11.92,27.17,3.7,39.34c-8.61,12.75-16.38,26.01-24.79,38.87
					c-0.78,1.18-1.69,2.28-2.46,3.33c-0.7-0.181-1.28-0.15-1.44-0.391c-9.62-14.79-19.92-29.199-28.58-44.54
					c-7.77-13.77-2.26-31.24,11.11-40.77C287.19,449.61,303.29,451.18,316.11,463.41z"/>
				<path fill="#4285F4" d="M896.99,847.89c3.45,24.391-15.92,47.261-40.62,47.301c-43.24,0.06-86.49-0.131-129.73,0.17
					c-6.109,0.04-8.09-2.2-9.56-7.65c-12.061-44.39-29.71-86.33-55.771-124.46c-12.76-18.69-27.59-35.41-46.739-47.87
					c-27.38-17.83-55.69-16.16-79.08,4.64c-12.931,12.391-19.42,27.301-23.72,43.381c-1.71,6.43-3.48,12.83-7.32,18.42
					c-8.24,11.989-20.1,16.85-34.16,17.29c-10.95,0.34-21.93-1.891-32.87,0.64c-39.06,9-59.04,48.42-43.41,85.76
					c1.12,2.67,2.34,5.3,3.68,8.351c-2.97,1.58-6.03,1.34-9.02,1.34c-73.4,0.01-146.79,0.04-220.18-0.021
					c-25.74-0.01-44.72-22.96-41.32-48.47c2.38-17.86,3.24-35.93,4.78-53.9c1.53-17.96,3.09-35.93,4.57-53.89
					c1.03-12.61,1.87-25.22,2.95-37.82c1.24-14.409,2.65-28.8,4.03-43.59c12.51,0.28,24.55,1.21,36.35-1.479
					c10.04-2.3,20.21-3.471,30.24-1.271c20.77,4.54,32.53,17.641,35.65,38.851c5.51,37.52,27.94,61.909,62.65,73.76
					c41.95,14.32,80.74,6.81,112.34-25.46c20.94-21.4,28.06-48.12,24.81-77.99c-1.73-15.91-6.78-31.15-8.1-47.09
					c-2.95-35.75,14.26-53.1,37.33-62.68c19.51-8.101,40.03-8.7,60.66-6.801c29.15,2.681,58.301,6.601,87.141-1.89
					c26-7.65,47.81-21.04,61.13-45.73c10.2-18.89,10.1-38.63,4.33-58.58c-3.08-10.65-2.311-19.73,4.31-29.29
					c11.59-16.73,12.521-36.11,10.38-55.7c-0.45-4.15-0.689-8.22-0.46-12.21c1.71-1.73,3.681-1.11,5.48-1.11
					c35.35-0.02,70.71,0.65,106.029-0.22c24.061-0.59,44.131,19.15,44.7,43.9c0.49,21.59,3,43.03,4.761,64.52
					c1.199,14.68,2.119,29.38,3.359,44.06c0.28,3.21-1.439,4.13-3.859,4.44c-34.061,4.39-55.601,37.29-56.521,70.78
					c-0.89,32.71,9.93,61.09,33.59,84.17c10.24,10,22.601,16.21,36.46,19.16c4.4,0.939,5.67,2.8,6,6.989
					c1.84,23.561,3.95,47.11,5.95,70.66c1.75,20.65,3.43,41.311,5.26,61.96C894.49,824.82,895.37,836.41,896.99,847.89z
					 M837.82,757.13c4.25-17.33,1.859-33.7-12.71-45.939c-5.92-4.971-10.23-10.771-13.681-17.48c-1.899-3.7-3.739-7.44-5.89-10.99
					c-10.69-17.59-30.24-24.72-48.271-17.7c-19.119,7.45-31.319,29.391-27.76,48.62c2.5,13.5,10.34,23.811,18.51,34.61
					c6.721,9.73,8.811,21.05,14.131,30.95c10.26,19.09,31.14,25.399,49.899,14.66C826.35,785.69,834.06,772.44,837.82,757.13z
					 M759.79,598.61c10.05-16.11,10.02-32.46,0.07-49.17c-12.83-18.561-30.591-25.7-51.721-21.65
					c-32.359,6.2-50.72,42.34-31.029,72.38c9.33,14.24,18.529,28.57,27.989,42.72c7.23,10.82,19.311,10.7,26.46-0.229
					C741.1,628.06,750.56,613.41,759.79,598.61z M268.53,812.97c5.13-8.01,8.68-16.84,7.7-26.43
					c-2.23-21.75-17.31-39.45-37.11-44.521c-21.41-5.479-41.22,2.271-54.97,21.801c-10.17,17.76-9.33,34.84,1.4,51.51
					c8.76,13.62,17.7,27.13,26.57,40.68c8.28,12.67,19.93,12.87,28.24,0.311C249.87,841.95,259.25,827.49,268.53,812.97z"/>
				<path fill="#34A853" d="M873.92,586.43c1.73,20.5,3.22,39.87,4.7,59.11c-3.64,1.61-5.94-0.21-8.19-1.39
					c-17.37-9.091-28.01-23.811-33.83-42.07c-6.3-19.78-7.85-39.59,3.5-58.29c6.24-10.29,14.96-17.51,28.23-19.021
					C871.07,545.59,872.22,566.04,873.92,586.43z"/>
				<path fill="#34A853" d="M808.82,731.83c10.59,10.939,2.43,34.729-10.99,40.22c-6.18,2.53-11.42,0.22-13.91-7.34
					c-5.02-15.18-12.51-28.85-22.71-41.12c-3.22-3.87-5.06-8.52-6.15-13.46c-1.76-8.05,3.631-17.899,11.36-20.64
					c6.03-2.13,11.92-0.45,15.97,5.13c2.42,3.33,4.38,7.04,6.24,10.729C793.73,715.44,799.65,724.86,808.82,731.83z"/>
				<path fill="#34A853" d="M689.22,888.69c0.94,4.64-1.06,6.55-5.63,6.5c-8.1-0.08-16.21,0.01-24.32,0.01
					c-18.079,0.01-36.17,0.01-54.25,0.01c-53.63,0-106.02-0.29-158.399,0.23c-11.7,0.109-19.5-4.851-25.54-13.58
					c-8.51-12.28-9.33-25.53-2.53-38.86c6.7-13.13,18.08-19.09,32.48-19.25c11.19-0.13,22.44,1.58,33.55-0.63
					c27.89-5.53,44.04-23.36,51.41-49.99c2.89-10.43,5.6-20.77,12.7-29.45c12.31-15.029,29.54-18.79,46.8-9.68
					c14.84,7.82,26.399,19.47,36.439,32.58c26.91,35.13,43.891,75.13,56.471,117.21C688.87,885.36,688.9,887.07,689.22,888.69z"/>
				<path fill="#34A853" d="M675.42,349.82c0.83,10.99,1.91,21.87-0.06,32.86c-1.351,7.53-4.561,14.28-8.641,20.53
					c-8.319,12.76-9.8,25.99-4.939,40.41c4.069,12.06,6.95,24.4,2.069,37.1c-5.01,13.04-14.449,22.12-26.01,29.27
					c-16.12,9.96-33.76,14.399-52.67,14.8c-17.29,0.37-34.34-2.18-51.5-3.34c-30.73-2.09-60.83,0.02-87.17,18.39
					c-22.28,15.53-33.12,37.5-34.72,64.47c-1.1,18.54,3.48,36.221,6.89,54.131c4.5,23.6,1.51,45.8-15.03,64.21
					c-18.44,20.529-42.26,27.729-69.29,24.699c-22.9-2.55-41.19-13.159-54.56-32.17c-7.12-10.13-8.01-22.05-10.48-33.54
					c-5.65-26.37-29.12-48.01-55.7-52.29c-14.05-2.26-27.63-0.22-41.38,1.891c-7.09,1.08-14.2,2.7-21.59,1.08
					c-3.95-0.87-5.06-2.21-4.69-6.2c2.14-23.12,3.96-46.271,6.01-69.4c1.88-21.26,3.99-42.489,5.87-63.75
					c1.46-16.52,2.75-33.06,4.07-49.59c1.72-21.49,2.89-43.05,5.24-64.48c2.19-20.03,19.91-35.79,40.14-35.86
					c69.02-0.22,138.04-0.01,207.06-0.13c5.03-0.01,7.67,2.28,9.52,6.37c24.62,43,48.82,85.18,72.96,127.39
					c7.96,13.91,21.55,14.21,29.661,0.36c24.77-42.32,49.479-84.67,74-127.13c2.829-4.9,6.029-7.06,11.8-6.96
					c18.5,0.31,37.01,0.23,55.51,0.03C672.83,342.92,674.99,344.17,675.42,349.82z M467.16,506.78c8.45-2.83,12.77-9.33,10.97-16.26
					c-2.35-9.02-9.89-13.95-18.88-11.8c-4.81,1.15-9.42,3.19-14.56,5.02c-5.05,2.08-9.82,3.63-13.39,7.41
					c-5.39,5.68-6.19,13.43-1.92,19.37c4.4,6.12,10.52,7.61,18.12,4.1C453.92,511.66,460.45,509.02,467.16,506.78z M407.63,541.84
					c5.63-5.939,5.81-13.22,0.87-19.05c-5.06-5.96-13.66-7.97-19.47-3.01c-9.87,8.43-19.61,17.21-25.66,29.7
					c-0.33,10.079,2.38,15.22,8.98,17.689c5.97,2.24,12.35,0.05,17.92-6.68C395.7,553.92,401.8,548.01,407.63,541.84z
					 M371.02,603.46c1.41-6.06,0.53-11.63-4.77-15.65c-7.94-6.04-18.44-2.8-21.62,6.74c-2.9,8.69-3.29,17.86-4.77,26.83
					c-1.57,9.561,2.69,16.95,11,18.63c7.09,1.44,13.95-4.02,16.33-13.41C367.93,618.45,369.27,610.93,371.02,603.46z M364.97,678.56
					c0.77-8.659-5.49-15.979-13.45-16.489c-8.27-0.54-14.15,5.71-14.57,15.109c-0.38,8.49-0.99,16.96-1.66,25.431
					c-0.6,7.55,3.86,14.09,11.06,15.85c6.12,1.5,13.31-2.56,15.99-9.08c1.52-3.729,1.74-7.67,1.67-12.229
					C363.83,690.53,364.44,684.56,364.97,678.56z M342.75,513.42c9.27-15.85,10.31-32.55,3.43-49.63
					c-12.37-30.69-48.68-45.15-78.07-31.13c-31.25,14.9-44.03,51.16-27.36,80.09c11.9,20.68,24.94,40.71,37.84,60.8
					c7.34,11.42,19.14,11.08,26.55-0.34c5.09-7.83,10.01-15.77,15.26-24.04C328.04,537.02,335.73,525.42,342.75,513.42z"/>
				<path fill="#FFFFFF" d="M514.27,283.91c6.431,1.12,10.36,6.92,8.94,12.57c-1.67,6.63-8.58,11.19-14.49,9.55
					c-6.57-1.83-9.53-7.5-7.55-14.46C504.44,285.97,508.44,282.89,514.27,283.91z"/>
				<path d="M920.07,828.65c1.149,17.069,4.689,34.359-2.24,51.069c-9.57,23.08-27.13,36-51.54,40.12
					c-12.2,2.061-24.48,1.01-36.72,1.07c-35.761,0.16-71.511,0.06-107.9,0.06c-184,0-367.37,0-550.75,0
					c-34.57-0.01-60.79-20.55-67.8-53.489c-1.83-8.57-1-17.421-0.42-26.101c1.33-19.83,3.07-39.64,4.76-59.45
					c1.89-22.08,3.96-44.149,5.86-66.22c1.43-16.51,2.68-33.04,4.08-49.55c1.55-18.36,3.21-36.72,4.76-55.09
					c1.36-16.101,2.59-32.221,3.95-48.33c1.54-18.16,3.2-36.311,4.75-54.47c0.97-11.35,1.79-22.72,2.74-34.07
					c1.53-18.17,3.17-36.32,4.65-54.49c1.03-12.6,2.45-25.21,2.71-37.84c0.6-30.58,25-59.28,55.17-64.42
					c5.16-0.88,10.27-1.18,15.47-1.18c60.71,0.02,121.42,0.02,182.12-0.02c2.84,0,5.78,0.62,8.92-0.92
					c-1.54-5.91-4.82-10.94-7.87-15.98c-4.62-7.66-4.87-15.12-0.56-22.94c14.46-26.2,28.83-52.44,43.23-78.68
					c0.97-1.77,1.87-3.58,3-5.75c-2.45-0.8-4.36-1.5-6.32-2.03c-9.73-2.6-14.76-8.88-14.8-18.87c-0.05-16.63-0.07-33.27,0.02-49.9
					c0.06-11.1,7.19-18.25,18.4-18.26c49.69-0.06,99.38-0.06,149.08,0.02c10.63,0.02,17.93,7.48,17.979,18.12
					c0.09,16.43,0.04,32.85,0.021,49.28c-0.011,11.08-4.83,17.04-15.86,19.78c-1.6,0.39-3.14,0.99-4.52,1.44
					c-1.08,2.12,0.239,3.44,1,4.82c14.06,25.47,27.89,51.07,42.359,76.31c6.03,10.51,6.54,20.09-0.17,30.26
					c-2.46,3.72-5.05,7.52-6.28,12c2.841,2.16,5.86,1.28,8.641,1.29c60.71,0.06,121.42,0.04,182.13,0.05
					c35.01,0,62.25,21.41,70.26,55.46c1.271,5.4,1.94,10.98,1.95,16.63c0.05,21.17,3.03,42.14,4.65,63.2
					c0.96,12.39,1.8,24.8,2.819,37.19c1.51,18.15,3.19,36.29,4.69,54.45c1.41,17.141,2.62,34.29,4.04,51.431
					c1.46,17.75,3.08,35.479,4.59,53.22c1,11.76,1.899,23.53,2.89,35.29c1.521,18.16,3.11,36.3,4.63,54.46
					c0.98,11.76,1.86,23.54,2.83,35.3C917.01,791.5,918.83,810.05,920.07,828.65z M856.37,895.19
					c24.7-0.04,44.07-22.91,40.62-47.301c-1.62-11.479-2.5-23.069-3.521-34.63c-1.83-20.649-3.51-41.31-5.26-61.96
					c-2-23.55-4.11-47.1-5.95-70.66c-0.33-4.189-1.6-6.05-6-6.989c-13.859-2.95-26.22-9.16-36.46-19.16
					c-23.66-23.08-34.479-51.46-33.59-84.17c0.92-33.49,22.46-66.39,56.521-70.78c2.42-0.31,4.14-1.23,3.859-4.44
					c-1.24-14.68-2.16-29.38-3.359-44.06c-1.761-21.49-4.271-42.93-4.761-64.52c-0.569-24.75-20.64-44.49-44.7-43.9
					c-35.319,0.87-70.68,0.2-106.029,0.22c-1.8,0-3.771-0.62-5.48,1.11c-0.229,3.99,0.01,8.06,0.46,12.21
					c2.141,19.59,1.21,38.97-10.38,55.7c-6.62,9.56-7.39,18.64-4.31,29.29c5.77,19.95,5.87,39.69-4.33,58.58
					c-13.32,24.69-35.13,38.08-61.13,45.73c-28.84,8.49-57.99,4.57-87.141,1.89c-20.63-1.899-41.15-1.3-60.66,6.801
					c-23.07,9.58-40.28,26.93-37.33,62.68c1.32,15.939,6.37,31.18,8.1,47.09c3.25,29.87-3.87,56.59-24.81,77.99
					c-31.6,32.27-70.39,39.78-112.34,25.46c-34.71-11.851-57.14-36.24-62.65-73.76c-3.12-21.21-14.88-34.311-35.65-38.851
					c-10.03-2.2-20.2-1.029-30.24,1.271c-11.8,2.689-23.84,1.76-36.35,1.479c-1.38,14.79-2.79,29.181-4.03,43.59
					c-1.08,12.601-1.92,25.21-2.95,37.82c-1.48,17.96-3.04,35.93-4.57,53.89c-1.54,17.971-2.4,36.04-4.78,53.9
					c-3.4,25.51,15.58,48.46,41.32,48.47c73.39,0.061,146.78,0.03,220.18,0.021c2.99,0,6.05,0.24,9.02-1.34
					c-1.34-3.051-2.56-5.681-3.68-8.351c-15.63-37.34,4.35-76.76,43.41-85.76c10.94-2.53,21.92-0.3,32.87-0.64
					c14.06-0.44,25.92-5.301,34.16-17.29c3.84-5.59,5.61-11.99,7.32-18.42c4.3-16.08,10.79-30.99,23.72-43.381
					c23.39-20.8,51.7-22.47,79.08-4.64c19.149,12.46,33.979,29.18,46.739,47.87c26.061,38.13,43.71,80.07,55.771,124.46
					c1.47,5.45,3.45,7.69,9.56,7.65C769.88,895.06,813.13,895.25,856.37,895.19z M878.62,645.54c-1.48-19.24-2.97-38.61-4.7-59.11
					c-1.7-20.39-2.85-40.84-5.59-61.66c-13.271,1.511-21.99,8.73-28.23,19.021c-11.35,18.7-9.8,38.51-3.5,58.29
					c5.82,18.26,16.46,32.979,33.83,42.07C872.68,645.33,874.98,647.15,878.62,645.54z M683.59,895.19c4.57,0.05,6.57-1.86,5.63-6.5
					c-0.319-1.62-0.35-3.33-0.819-4.9c-12.58-42.08-29.561-82.08-56.471-117.21c-10.04-13.11-21.6-24.76-36.439-32.58
					c-17.26-9.11-34.49-5.35-46.8,9.68c-7.101,8.681-9.811,19.021-12.7,29.45c-7.37,26.63-23.52,44.46-51.41,49.99
					c-11.11,2.21-22.36,0.5-33.55,0.63c-14.4,0.16-25.78,6.12-32.48,19.25c-6.8,13.33-5.98,26.58,2.53,38.86
					c6.04,8.729,13.84,13.689,25.54,13.58c52.38-0.521,104.77-0.23,158.399-0.23c18.08,0,36.171,0,54.25-0.01
					C667.38,895.2,675.49,895.11,683.59,895.19z M675.36,382.68c1.97-10.99,0.89-21.87,0.06-32.86c-0.43-5.65-2.59-6.9-7.63-6.85
					c-18.5,0.2-37.01,0.28-55.51-0.03c-5.771-0.1-8.971,2.06-11.8,6.96c-24.521,42.46-49.23,84.81-74,127.13
					c-8.11,13.85-21.701,13.55-29.661-0.36c-24.14-42.21-48.34-84.39-72.96-127.39c-1.85-4.09-4.49-6.38-9.52-6.37
					c-69.02,0.12-138.04-0.09-207.06,0.13c-20.23,0.07-37.95,15.83-40.14,35.86c-2.35,21.43-3.52,42.99-5.24,64.48
					c-1.32,16.53-2.61,33.07-4.07,49.59c-1.88,21.26-3.99,42.49-5.87,63.75c-2.05,23.13-3.87,46.28-6.01,69.4
					c-0.37,3.99,0.74,5.33,4.69,6.2c7.39,1.62,14.5,0,21.59-1.08c13.75-2.11,27.33-4.15,41.38-1.891
					c26.58,4.28,50.05,25.92,55.7,52.29c2.47,11.49,3.36,23.41,10.48,33.54c13.37,19.011,31.66,29.62,54.56,32.17
					c27.03,3.03,50.85-4.17,69.29-24.699c16.54-18.41,19.53-40.61,15.03-64.21c-3.41-17.91-7.99-35.591-6.89-54.131
					c1.6-26.97,12.44-48.939,34.72-64.47c26.34-18.37,56.44-20.479,87.17-18.39c17.16,1.16,34.21,3.71,51.5,3.34
					c18.91-0.4,36.55-4.84,52.67-14.8c11.561-7.15,21-16.23,26.01-29.27c4.881-12.7,2-25.04-2.069-37.1
					c-4.86-14.42-3.38-27.65,4.939-40.41C670.8,396.96,674.01,390.21,675.36,382.68z M600.39,297.92c4.74-8.02,5.341-14.22-0.83-22
					c-14.229-25.59-28.609-51.11-42.59-76.84c-3.29-6.05-7.229-8.27-14.25-8.11c-21.6,0.52-43.22,0.31-64.83,0.09
					c-4.52-0.04-7.15,1.39-9.35,5.38c-15.34,27.83-30.7,55.66-46.57,83.2c-3.42,5.94-2.89,10.13,0.38,15.71
					c17.83,30.48,35.28,61.18,52.87,91.8c7.62,13.26,15.25,26.51,23.07,40.11c0.5-0.95,0.82-1.27,0.82-1.59
					c0.03-29.72-0.03-59.44,0.12-89.16c0.02-4.09-1.98-6.07-5.23-7.53c-12.65-5.65-22.83-21.95-19.81-40
					c2.51-15.01,16.97-29.58,31.68-31.3c19.979-2.33,34.72,5.41,41.16,21.64c7.01,17.64,0.13,38.24-16.57,48.92
					c-3.38,2.16-5.6,4.18-5.57,8.71c0.2,27.85,0.08,55.7,0.141,83.55c0,1.46-0.811,3.38,1.64,4.43c0.59-0.76,1.3-1.49,1.79-2.34
					C552.37,381,575.99,339.23,600.39,297.92z M579.78,158.26c0.12-6.44,0.41-12.87,0.39-19.31c-0.04-8.35-0.64-8.88-8.81-8.88
					c-38.25-0.01-76.5,0-114.74,0.03c-2.49,0-4.99,0.31-7.47,0.25c-3.95-0.1-5.51,1.56-5.35,5.61c0.26,6.64,0.06,13.3,0.07,19.95
					c0.02,8.99,0.39,9.39,9.59,9.4c27.23,0.02,54.46,0.01,82.94,0.01c11.85,0,23.699-0.2,35.54,0.07
					C577.25,165.52,579.67,163.42,579.78,158.26z M523.21,296.48c1.42-5.65-2.51-11.45-8.94-12.57c-5.83-1.02-9.83,2.06-13.1,7.66
					c-1.98,6.96,0.98,12.63,7.55,14.46C514.63,307.67,521.54,303.11,523.21,296.48z"/>
				<path d="M825.11,711.19c14.569,12.239,16.96,28.609,12.71,45.939c-3.761,15.311-11.471,28.561-25.771,36.73
					c-18.76,10.739-39.64,4.43-49.899-14.66c-5.32-9.9-7.41-21.22-14.131-30.95c-8.17-10.8-16.01-21.11-18.51-34.61
					c-3.56-19.229,8.641-41.17,27.76-48.62c18.03-7.02,37.58,0.11,48.271,17.7c2.15,3.55,3.99,7.29,5.89,10.99
					C814.88,700.42,819.19,706.22,825.11,711.19z M797.83,772.05c13.42-5.49,21.58-29.28,10.99-40.22
					c-9.17-6.97-15.09-16.39-20.19-26.48c-1.86-3.689-3.82-7.399-6.24-10.729c-4.05-5.58-9.939-7.26-15.97-5.13
					c-7.729,2.74-13.12,12.59-11.36,20.64c1.091,4.94,2.931,9.59,6.15,13.46c10.2,12.271,17.69,25.94,22.71,41.12
					C786.41,772.27,791.65,774.58,797.83,772.05z"/>
				<path d="M759.86,549.44c9.949,16.71,9.979,33.06-0.07,49.17c-9.23,14.8-18.69,29.449-28.23,44.05
					c-7.149,10.93-19.229,11.05-26.46,0.229c-9.46-14.149-18.659-28.479-27.989-42.72c-19.69-30.04-1.33-66.18,31.029-72.38
					C729.27,523.74,747.03,530.88,759.86,549.44z M738.66,585.09c3.81-6.399,4.38-13.359,0.77-20.2
					c-4.609-8.76-14.52-14.21-23.58-13.109c-10.01,1.22-17.1,8.05-20.22,20.189c-0.57,4.011-0.27,8.09,1.53,11.59
					c4.57,8.87,10.77,16.73,16.75,24.66c2.54,3.351,7.74,2.69,10.1-0.79C729,600.06,734.11,592.74,738.66,585.09z"/>
				<path fill="#FFFFFF" d="M599.56,275.92c6.171,7.78,5.57,13.98,0.83,22c-24.399,41.31-48.02,83.08-71.93,124.67
					c-0.49,0.85-1.2,1.58-1.79,2.34c-2.45-1.05-1.64-2.97-1.64-4.43c-0.061-27.85,0.06-55.7-0.141-83.55
					c-0.029-4.53,2.19-6.55,5.57-8.71c16.7-10.68,23.58-31.28,16.57-48.92c-6.44-16.23-21.181-23.97-41.16-21.64
					c-14.71,1.72-29.17,16.29-31.68,31.3c-3.02,18.05,7.16,34.35,19.81,40c3.25,1.46,5.25,3.44,5.23,7.53
					c-0.15,29.72-0.09,59.44-0.12,89.16c0,0.32-0.32,0.64-0.82,1.59c-7.82-13.6-15.45-26.85-23.07-40.11
					c-17.59-30.62-35.04-61.32-52.87-91.8c-3.27-5.58-3.8-9.77-0.38-15.71c15.87-27.54,31.23-55.37,46.57-83.2
					c2.2-3.99,4.83-5.42,9.35-5.38c21.61,0.22,43.23,0.43,64.83-0.09c7.021-0.16,10.96,2.06,14.25,8.11
					C570.95,224.81,585.33,250.33,599.56,275.92z"/>
				<path fill="#4285F4" d="M580.17,138.95c0.021,6.44-0.27,12.87-0.39,19.31c-0.11,5.16-2.53,7.26-7.84,7.13
					c-11.841-0.27-23.69-0.07-35.54-0.07c-28.48,0-55.71,0.01-82.94-0.01c-9.2-0.01-9.57-0.41-9.59-9.4
					c-0.01-6.65,0.19-13.31-0.07-19.95c-0.16-4.05,1.4-5.71,5.35-5.61c2.48,0.06,4.98-0.25,7.47-0.25
					c38.24-0.03,76.49-0.04,114.74-0.03C579.53,130.07,580.13,130.6,580.17,138.95z"/>
				<path d="M478.13,490.52c1.8,6.93-2.52,13.43-10.97,16.26c-6.71,2.24-13.24,4.88-19.66,7.84c-7.6,3.51-13.72,2.02-18.12-4.1
					c-4.27-5.94-3.47-13.69,1.92-19.37c3.57-3.78,8.34-5.33,13.39-7.41c5.14-1.83,9.75-3.87,14.56-5.02
					C468.24,476.57,475.78,481.5,478.13,490.52z"/>
				<path d="M408.5,522.79c4.94,5.83,4.76,13.11-0.87,19.05c-5.83,6.17-11.93,12.08-17.36,18.65c-5.57,6.729-11.95,8.92-17.92,6.68
					c-6.6-2.47-9.31-7.61-8.98-17.689c6.05-12.49,15.79-21.271,25.66-29.7C394.84,514.82,403.44,516.83,408.5,522.79z"/>
				<path d="M366.25,587.81c5.3,4.021,6.18,9.591,4.77,15.65c-1.75,7.47-3.09,14.99-3.83,23.14c-2.38,9.391-9.24,14.851-16.33,13.41
					c-8.31-1.68-12.57-9.069-11-18.63c1.48-8.97,1.87-18.14,4.77-26.83C347.81,585.01,358.31,581.77,366.25,587.81z"/>
				<path d="M351.52,662.07c7.96,0.51,14.22,7.83,13.45,16.489c-0.53,6-1.14,11.971-0.96,18.591c0.07,4.56-0.15,8.5-1.67,12.229
					c-2.68,6.521-9.87,10.58-15.99,9.08c-7.2-1.76-11.66-8.3-11.06-15.85c0.67-8.471,1.28-16.94,1.66-25.431
					C337.37,667.78,343.25,661.53,351.52,662.07z"/>
				<path d="M346.18,463.79c6.88,17.08,5.84,33.78-3.43,49.63c-7.02,12-14.71,23.6-22.35,35.75c-5.25,8.271-10.17,16.21-15.26,24.04
					c-7.41,11.42-19.21,11.76-26.55,0.34c-12.9-20.09-25.94-40.12-37.84-60.8c-16.67-28.93-3.89-65.19,27.36-80.09
					C297.5,418.64,333.81,433.1,346.18,463.79z M319.81,502.75c8.22-12.17,6.63-26.69-3.7-39.34c-12.82-12.23-28.92-13.8-42.46-4.16
					c-13.37,9.53-18.88,27-11.11,40.77c8.66,15.34,18.96,29.75,28.58,44.54c0.16,0.24,0.74,0.21,1.44,0.391
					c0.77-1.05,1.68-2.15,2.46-3.33C303.43,528.76,311.2,515.5,319.81,502.75z"/>
				<path d="M276.23,786.54c0.98,9.59-2.57,18.42-7.7,26.43c-9.28,14.521-18.66,28.98-28.17,43.351
					c-8.31,12.56-19.96,12.359-28.24-0.311c-8.87-13.55-17.81-27.06-26.57-40.68c-10.73-16.67-11.57-33.75-1.4-51.51
					c13.75-19.53,33.56-27.28,54.97-21.801C258.92,747.09,274,764.79,276.23,786.54z M247,800.55c5.76-9.06,4.52-18.85-2.79-26.819
					c-7.26-7.91-18.71-10.141-27.91-5.711c-11.39,5.48-21,22.08-6.63,38.94c5.56,7.6,9.83,16.17,17.12,23.69
					C233.86,820.16,240.66,810.5,247,800.55z"/>
			</g>
		</g>
	</g>
</g>
</svg>
